<?xml version="1.0" encoding="UTF-8"?>
<!-- Generator: visioncortex VTracer 0.6.3 -->
<svg version="1.1" xmlns="http://www.w3.org/2000/svg" width="1223" height="1280">
<path d="M0 0 C1.47 -0 1.47 -0 2.96 -0.01 C4.04 -0.01 5.11 -0 6.22 -0 C7.35 -0 8.48 -0.01 9.65 -0.01 C13.4 -0.01 17.15 -0.01 20.9 -0.01 C23.49 -0.01 26.09 -0.01 28.68 -0.01 C34.13 -0.01 39.57 -0.01 45.02 -0 C51.32 0 57.62 0 63.93 -0.01 C69.98 -0.01 76.04 -0.01 82.09 -0.01 C84.67 -0.01 87.25 -0.01 89.84 -0.01 C93.43 -0.01 97.03 -0.01 100.63 -0 C101.71 -0 102.79 -0.01 103.9 -0.01 C104.87 -0.01 105.85 -0 106.85 0 C108.13 0 108.13 0 109.43 0 C111.36 0.13 111.36 0.13 112.36 1.13 C112.46 3.52 112.49 5.89 112.49 8.29 C112.49 9.06 112.49 9.82 112.49 10.61 C112.49 13.2 112.49 15.8 112.49 18.4 C112.49 20.27 112.49 22.15 112.49 24.02 C112.49 29.22 112.49 34.41 112.48 39.61 C112.48 45.25 112.48 50.88 112.49 56.52 C112.49 66.42 112.49 76.31 112.48 86.2 C112.48 96.83 112.48 107.45 112.48 118.07 C112.48 118.74 112.48 119.41 112.48 120.1 C112.48 123.51 112.48 126.93 112.48 130.34 C112.48 155.09 112.47 179.83 112.47 204.58 C112.46 229.09 112.46 253.6 112.46 278.12 C112.46 278.88 112.46 279.64 112.46 280.42 C112.46 287.37 112.46 294.32 112.46 301.26 C112.46 318.54 112.45 335.81 112.45 353.08 C112.45 354.26 112.45 354.26 112.45 355.46 C112.45 393.75 112.44 432.03 112.44 470.32 C112.44 483.61 112.43 496.9 112.43 510.19 C112.43 511.01 112.43 511.84 112.43 512.68 C112.42 550.98 112.42 589.28 112.42 627.58 C112.42 630.07 112.42 632.55 112.42 635.04 C112.42 651.51 112.41 667.98 112.41 684.45 C112.41 717.23 112.41 750.01 112.4 782.79 C112.4 784.35 112.4 785.91 112.4 787.47 C112.4 865.62 112.39 943.76 112.36 1099.13 C96.99 1099.15 81.63 1099.17 66.26 1099.18 C59.12 1099.18 51.99 1099.19 44.85 1099.2 C37.97 1099.21 31.09 1099.22 24.21 1099.22 C21.58 1099.22 18.95 1099.23 16.32 1099.23 C12.65 1099.24 8.98 1099.24 5.31 1099.24 C4.21 1099.24 3.11 1099.25 1.98 1099.25 C0.48 1099.25 0.48 1099.25 -1.04 1099.25 C-1.91 1099.25 -2.78 1099.25 -3.67 1099.25 C-5.64 1099.13 -5.64 1099.13 -6.64 1098.13 C-6.74 1095.73 -6.77 1093.36 -6.76 1090.97 C-6.76 1090.21 -6.76 1089.44 -6.77 1088.66 C-6.77 1086.06 -6.76 1083.47 -6.76 1080.87 C-6.76 1079 -6.76 1077.13 -6.76 1075.26 C-6.77 1070.06 -6.76 1064.87 -6.76 1059.68 C-6.76 1054.05 -6.76 1048.41 -6.76 1042.78 C-6.76 1032.9 -6.76 1023.01 -6.76 1013.13 C-6.75 1002.52 -6.75 991.9 -6.75 981.29 C-6.75 980.62 -6.75 979.95 -6.75 979.26 C-6.75 975.85 -6.75 972.44 -6.75 969.03 C-6.75 944.31 -6.75 919.58 -6.74 894.86 C-6.74 870.37 -6.73 845.88 -6.73 821.39 C-6.73 820.63 -6.73 819.87 -6.73 819.09 C-6.73 812.14 -6.73 805.2 -6.73 798.26 C-6.73 781.01 -6.73 763.75 -6.73 746.49 C-6.73 745.71 -6.73 744.92 -6.73 744.11 C-6.73 705.86 -6.72 667.61 -6.71 629.36 C-6.71 616.09 -6.71 602.81 -6.71 589.53 C-6.71 588.3 -6.71 588.3 -6.71 587.04 C-6.7 548.77 -6.7 510.51 -6.69 472.25 C-6.69 469.76 -6.69 467.28 -6.69 464.79 C-6.69 448.34 -6.69 431.88 -6.69 415.42 C-6.69 382.67 -6.68 349.93 -6.68 317.18 C-6.68 315.62 -6.68 314.06 -6.68 312.5 C-6.67 234.43 -6.66 156.35 -6.64 1.13 C-4.22 -0.08 -2.7 0 0 0 Z " fill="#00E0D2" transform="translate(881.6375885009766,153.87301635742188)"/>
<path d="M0 0 C38.28 0 76.56 0 116 0 C116 362.67 116 725.34 116 1099 C77.72 1099 39.44 1099 0 1099 C-1.68 1097.32 -1.12 1095.27 -1.13 1093.03 C-1.13 1091.95 -1.13 1091.95 -1.13 1090.84 C-1.13 1090.08 -1.13 1089.32 -1.13 1088.53 C-1.13 1085.94 -1.13 1083.34 -1.13 1080.75 C-1.13 1078.88 -1.13 1077 -1.13 1075.13 C-1.13 1069.94 -1.13 1064.75 -1.13 1059.56 C-1.13 1053.93 -1.13 1048.3 -1.13 1042.66 C-1.14 1032.78 -1.14 1022.9 -1.13 1013.01 C-1.13 1002.4 -1.13 991.79 -1.13 981.18 C-1.13 980.51 -1.13 979.84 -1.13 979.16 C-1.13 976.43 -1.13 973.71 -1.13 970.98 C-1.14 945.58 -1.14 920.17 -1.14 894.76 C-1.14 894.01 -1.14 893.26 -1.14 892.48 C-1.14 891.73 -1.14 890.97 -1.14 890.19 C-1.13 867.23 -1.13 844.27 -1.13 821.3 C-1.13 819.76 -1.13 818.23 -1.13 816.69 C-1.13 810.52 -1.13 804.35 -1.14 798.18 C-1.14 780.92 -1.14 763.67 -1.14 746.41 C-1.14 745.63 -1.14 744.84 -1.14 744.03 C-1.14 718.98 -1.14 693.93 -1.13 668.88 C-1.13 668.06 -1.13 667.25 -1.13 666.41 C-1.13 653.21 -1.13 640.01 -1.13 626.81 C-1.13 574.44 -1.13 522.08 -1.13 469.71 C-1.13 456.51 -1.13 443.32 -1.13 430.12 C-1.13 429.31 -1.13 428.5 -1.13 427.66 C-1.14 402.64 -1.14 377.61 -1.14 352.59 C-1.14 351.8 -1.14 351.02 -1.14 350.21 C-1.14 332.97 -1.14 315.74 -1.13 298.5 C-1.13 292.34 -1.13 286.17 -1.13 280 C-1.13 278.47 -1.13 276.93 -1.13 275.4 C-1.13 252.44 -1.13 229.48 -1.14 206.52 C-1.14 205.76 -1.14 205.01 -1.14 204.24 C-1.14 203.48 -1.14 202.73 -1.14 201.96 C-1.14 176.63 -1.14 151.3 -1.13 125.97 C-1.13 123.25 -1.13 120.53 -1.13 117.82 C-1.13 117.15 -1.13 116.48 -1.13 115.8 C-1.13 104.57 -1.13 93.34 -1.13 82.11 C-1.14 72.36 -1.13 62.62 -1.13 52.87 C-1.13 47.3 -1.13 41.74 -1.13 36.17 C-1.13 31.12 -1.13 26.07 -1.13 21.02 C-1.13 19.19 -1.13 17.36 -1.13 15.54 C-1.13 13.08 -1.13 10.62 -1.13 8.16 C-1.13 7.44 -1.13 6.72 -1.13 5.97 C-1.11 1.11 -1.11 1.11 0 0 Z " fill="#00DFD1" transform="translate(693,154)"/>
<path d="M0 0 C1.33 0.01 1.33 0.01 2.69 0.02 C4.11 0.02 4.11 0.02 5.55 0.01 C8.72 0.01 11.89 0.02 15.06 0.03 C17.33 0.03 19.59 0.03 21.86 0.03 C28.03 0.03 34.2 0.04 40.37 0.06 C46.81 0.07 53.25 0.07 59.69 0.07 C70.51 0.08 81.32 0.09 92.14 0.11 C103.28 0.13 114.42 0.14 125.57 0.15 C126.25 0.15 126.94 0.15 127.65 0.15 C131.09 0.15 134.53 0.16 137.98 0.16 C166.56 0.18 195.14 0.21 223.72 0.26 C223.72 1.23 223.72 2.19 223.73 3.19 C223.81 60.53 223.9 117.86 224 175.2 C224.01 182.07 224.03 188.95 224.04 195.83 C224.04 196.85 224.04 196.85 224.04 197.9 C224.08 220.1 224.12 242.3 224.15 264.5 C224.18 287.95 224.22 311.4 224.26 334.85 C224.29 348.91 224.31 362.96 224.33 377.02 C224.34 386.65 224.36 396.27 224.38 405.9 C224.39 411.46 224.4 417.02 224.41 422.58 C224.41 427.67 224.42 432.75 224.44 437.83 C224.44 439.68 224.44 441.53 224.44 443.37 C224.44 445.87 224.45 448.36 224.46 450.86 C224.46 451.59 224.45 452.32 224.45 453.07 C224.37 457.11 224.37 457.11 226.72 460.26 C227 462.8 227.19 465.27 227.28 467.82 C227.08 472.41 227.08 472.41 228.72 476.26 C228.88 477.71 229 479.17 229.1 480.63 C229.76 490.09 229.76 490.09 233.72 498.26 C233.85 499.31 233.97 500.36 234.1 501.45 C234.52 505.23 234.52 505.23 236.22 508.26 C237.91 511.63 238.35 514.53 238.72 518.26 C239.38 518.26 240.04 518.26 240.72 518.26 C240.92 518.81 241.11 519.37 241.31 519.94 C241.57 520.66 241.83 521.39 242.1 522.13 C242.35 522.85 242.61 523.57 242.87 524.31 C243.66 526.44 243.66 526.44 245.72 528.26 C245.72 529.58 245.72 530.9 245.72 532.26 C246.38 532.26 247.04 532.26 247.72 532.26 C248.18 533.21 248.63 534.16 249.1 535.13 C250.52 538.26 250.52 538.26 252.72 540.26 C252.72 541.58 252.72 542.9 252.72 544.26 C253.26 544.47 253.8 544.68 254.35 544.89 C257.63 546.78 260.05 549.38 262.66 552.07 C263.17 552.59 263.68 553.11 264.21 553.65 C265.23 554.68 266.24 555.72 267.25 556.76 C268.66 558.2 270.08 559.62 271.51 561.04 C272.77 562.3 274.01 563.57 275.22 564.88 C277.97 567.4 281.3 569.02 284.53 570.82 C285.62 571.53 285.62 571.53 286.72 572.26 C286.72 572.92 286.72 573.58 286.72 574.26 C287.4 574.34 288.08 574.42 288.78 574.51 C291.96 575.32 294.22 576.59 297.01 578.27 C299.16 579.51 301.39 580.41 303.72 581.26 C303.72 581.92 303.72 582.58 303.72 583.26 C304.32 583.43 304.91 583.6 305.52 583.77 C310.1 585.11 314.62 586.55 319.1 588.2 C337.89 595.1 357.84 600.62 377.9 602.05 C379.72 602.26 379.72 602.26 381.72 603.26 C384.02 603.6 386.32 603.89 388.62 604.16 C389.33 604.24 390.03 604.32 390.75 604.41 C393.05 604.68 395.36 604.94 397.66 605.2 C398.44 605.28 399.22 605.37 400.03 605.47 C411.82 606.81 423.61 607.9 435.46 608.66 C436.99 608.76 436.99 608.76 438.56 608.86 C439.44 608.92 440.32 608.97 441.23 609.02 C443.72 609.26 443.72 609.26 446.05 609.76 C449.57 610.42 453.07 610.49 456.65 610.57 C457.4 610.6 458.14 610.62 458.91 610.64 C461.29 610.7 463.66 610.76 466.03 610.82 C467.65 610.86 469.27 610.91 470.88 610.95 C474.83 611.06 478.77 611.16 482.72 611.26 C482.72 611.92 482.72 612.58 482.72 613.26 C484.32 613.01 484.32 613.01 485.94 612.75 C491.7 612.04 497.42 612.2 503.21 612.31 C504.39 612.33 505.57 612.35 506.79 612.37 C509.27 612.41 511.75 612.45 514.23 612.5 C518.04 612.57 521.85 612.62 525.65 612.68 C528.07 612.72 530.48 612.76 532.9 612.81 C534.61 612.83 534.61 612.83 536.35 612.85 C537.41 612.88 538.46 612.9 539.55 612.92 C540.48 612.94 541.41 612.96 542.37 612.97 C544.72 613.26 544.72 613.26 547.72 615.26 C547.41 617.74 547.1 620.22 546.78 622.7 C546.7 623.4 546.61 624.11 546.52 624.84 C545.84 630.14 545.84 630.14 544.72 631.26 C544.44 633.51 544.27 635.77 544.1 638.03 C543.72 640.26 543.72 640.26 541.72 643.26 C541.31 645.27 541.31 645.27 541.16 647.38 C540.72 651.26 540.72 651.26 539.72 652.26 C539.51 654.09 539.35 655.92 539.22 657.76 C538.83 663.15 538.83 663.15 537.72 664.26 C537.49 665.61 537.31 666.96 537.16 668.32 C537.02 669.62 536.87 670.92 536.72 672.26 C536.06 672.26 535.4 672.26 534.72 672.26 C534.39 675.23 534.06 678.2 533.72 681.26 C529.22 681.28 524.72 681.3 520.21 681.31 C518.68 681.32 517.15 681.32 515.62 681.33 C513.42 681.35 511.22 681.35 509.01 681.36 C508.33 681.36 507.65 681.37 506.94 681.37 C503.91 681.37 501.62 681.22 498.72 680.26 C496.52 680.16 494.31 680.13 492.1 680.13 C490.35 680.13 490.35 680.13 488.56 680.13 C485.82 679.93 485.82 679.93 484.72 681.26 C482.37 681.36 480.05 681.4 477.69 681.39 C476.99 681.39 476.29 681.39 475.56 681.39 C474.07 681.39 472.58 681.39 471.08 681.39 C468.8 681.38 466.51 681.39 464.22 681.39 C462.78 681.39 461.33 681.39 459.88 681.39 C459.2 681.39 458.51 681.4 457.8 681.4 C452.95 681.37 452.95 681.37 450.72 680.26 C449.1 680.15 447.47 680.1 445.85 680.08 C444.83 680.07 443.82 680.06 442.77 680.04 C441.67 680.03 440.57 680.02 439.43 680.01 C437.11 679.98 434.78 679.95 432.45 679.91 C428.78 679.87 425.11 679.82 421.43 679.78 C417.89 679.74 414.35 679.69 410.81 679.64 C409.17 679.62 409.17 679.62 407.51 679.61 C401.53 679.52 396.47 678.82 390.72 677.26 C388.36 677.06 386 676.93 383.63 676.88 C382.35 676.85 381.08 676.81 379.76 676.78 C378.45 676.75 377.14 676.72 375.78 676.7 C373.15 676.64 370.52 676.57 367.88 676.5 C366.72 676.48 365.56 676.46 364.37 676.43 C361.72 676.26 361.72 676.26 360.72 675.26 C359.24 675.1 357.74 675.01 356.25 674.94 C354.9 674.88 354.9 674.88 353.52 674.81 C352.11 674.76 352.11 674.76 350.66 674.7 C349.71 674.65 348.76 674.61 347.78 674.56 C345.43 674.46 343.08 674.36 340.72 674.26 C340.72 673.6 340.72 672.94 340.72 672.26 C339.63 672.28 338.53 672.3 337.4 672.33 C335.94 672.35 334.49 672.37 333.03 672.38 C332.31 672.4 331.59 672.42 330.85 672.43 C326.59 672.47 323.59 671.94 319.72 670.26 C317.63 669.98 315.52 669.77 313.41 669.63 C312.34 669.56 311.27 669.48 310.17 669.41 C309.36 669.36 308.55 669.31 307.72 669.26 C307.72 668.6 307.72 667.94 307.72 667.26 C306.33 667.28 306.33 667.28 304.91 667.29 C303.12 667.31 303.12 667.31 301.28 667.32 C300.09 667.33 298.89 667.34 297.66 667.36 C294.72 667.26 294.72 667.26 293.72 666.26 C291.24 665.97 288.76 665.81 286.26 665.64 C283.72 665.26 283.72 665.26 281.91 664.32 C278.62 662.72 275.11 662.3 271.53 661.7 C263.85 660.38 263.85 660.38 262.72 659.26 C261.36 658.91 259.98 658.6 258.6 658.32 C254.58 657.46 250.66 656.43 246.72 655.26 C246.72 654.6 246.72 653.94 246.72 653.26 C245.36 653.32 245.36 653.32 243.97 653.38 C240.67 653.26 239.56 652.74 236.72 651.26 C235.15 650.69 233.56 650.15 231.97 649.63 C230.77 649.24 230.77 649.24 229.55 648.84 C228.95 648.65 228.34 648.46 227.72 648.26 C227.72 647.6 227.72 646.94 227.72 646.26 C226.75 646.18 225.78 646.09 224.78 646.01 C220.05 645.36 215.98 643.34 211.72 641.26 C211.72 640.6 211.72 639.94 211.72 639.26 C210.67 639.13 210.67 639.13 209.6 639.01 C206.04 638.08 203.73 636.35 200.72 634.26 C199.73 633.76 198.74 633.27 197.72 632.76 C194.52 631.16 191.67 629.29 188.72 627.26 C187.69 626.6 186.66 625.94 185.6 625.26 C182.72 623.26 182.72 623.26 180.72 621.2 C178.78 619.1 178.78 619.1 175.98 618 C172.15 615.95 169.63 613.5 166.66 610.38 C166.16 609.87 165.65 609.35 165.13 608.82 C164.14 607.79 163.14 606.77 162.15 605.74 C160.79 604.33 159.4 602.94 158.01 601.56 C153.64 597.16 150.15 592.4 146.72 587.26 C146.14 586.7 145.57 586.14 144.97 585.57 C143.72 584.26 143.72 584.26 143.72 581.26 C143.06 581.26 142.4 581.26 141.72 581.26 C140.53 579.12 139.34 576.98 138.16 574.83 C137.24 573.19 136.31 571.54 135.38 569.9 C133.45 566.49 131.6 563.13 130.1 559.51 C128.82 556.28 128.82 556.28 127.1 553.57 C124.8 549.7 124.42 545.67 123.72 541.26 C123.06 541.26 122.4 541.26 121.72 541.26 C121.62 540.45 121.52 539.65 121.41 538.82 C120.73 535.32 119.74 532.14 118.58 528.77 C115.67 520.23 113.7 511.7 112.1 502.82 C111.88 501.67 111.66 500.52 111.44 499.33 C110.28 493.02 109.39 486.79 108.95 480.38 C108.84 478.21 108.84 478.21 107.72 476.26 C107.22 472.61 106.97 468.93 106.66 465.26 C106.57 464.25 106.48 463.25 106.38 462.22 C105.9 456.62 105.64 451.12 105.79 445.51 C105.79 443.24 105.79 443.24 105.23 441.01 C104.66 437.92 104.6 435.04 104.6 431.9 C104.6 430.6 104.59 429.31 104.59 427.98 C104.6 426.55 104.6 425.12 104.6 423.69 C104.6 422.16 104.6 420.64 104.6 419.12 C104.6 414.93 104.6 410.75 104.61 406.57 C104.61 402.05 104.61 397.54 104.61 393.03 C104.61 385.21 104.61 377.4 104.62 369.58 C104.62 358.27 104.63 346.97 104.63 335.67 C104.63 317.33 104.64 298.99 104.65 280.65 C104.66 262.84 104.66 245.02 104.67 227.21 C104.67 226.11 104.67 225.01 104.67 223.88 C104.67 218.38 104.67 212.87 104.67 207.36 C104.68 161.66 104.7 115.96 104.72 70.26 C103.89 70.27 103.89 70.27 103.05 70.27 C89.61 70.38 76.17 70.46 62.74 70.52 C56.24 70.54 49.74 70.58 43.24 70.64 C36.97 70.69 30.7 70.72 24.43 70.73 C22.04 70.74 19.65 70.76 17.25 70.79 C13.9 70.82 10.55 70.83 7.2 70.83 C6.21 70.84 5.22 70.86 4.2 70.88 C-0.46 70.85 -2.58 70.78 -6.39 67.91 C-8.7 64.66 -8.9 62.9 -8.88 58.94 C-8.88 57.68 -8.89 56.43 -8.9 55.14 C-8.88 53.78 -8.86 52.42 -8.84 51.06 C-8.83 49.66 -8.83 48.26 -8.83 46.86 C-8.82 43.93 -8.8 41 -8.77 38.07 C-8.72 34.32 -8.71 30.56 -8.7 26.81 C-8.7 23.92 -8.68 21.03 -8.66 18.14 C-8.65 16.76 -8.65 15.37 -8.64 13.98 C-8.63 12.05 -8.61 10.12 -8.58 8.19 C-8.57 7.09 -8.56 5.99 -8.55 4.86 C-7.98 -0.56 -4.67 0.02 0 0 Z M486.72 678.26 C486.72 678.59 486.72 678.92 486.72 679.26 C490.68 679.26 494.64 679.26 498.72 679.26 C498.72 678.93 498.72 678.6 498.72 678.26 C494.76 678.26 490.8 678.26 486.72 678.26 Z " fill="#00DFD1" transform="translate(42.277979016304016,590.7418373823166)"/>
<path d="M0 0 C0.87 -0 1.74 -0 2.64 -0.01 C3.6 -0 4.57 -0 5.56 0 C6.58 0 7.6 0 8.65 0 C12.08 -0 15.51 0 18.95 0.01 C21.4 0.01 23.86 0.01 26.31 0.01 C31.6 0.01 36.9 0.01 42.19 0.02 C49.84 0.03 57.5 0.03 65.15 0.03 C77.57 0.03 89.98 0.04 102.4 0.05 C114.46 0.06 126.53 0.06 138.59 0.07 C139.71 0.07 139.71 0.07 140.84 0.07 C144.57 0.07 148.3 0.07 152.03 0.07 C182.97 0.08 213.92 0.1 244.87 0.12 C244.54 22.56 244.21 45 243.87 68.12 C179.02 68.62 179.02 68.62 112.87 69.12 C112.97 111.53 113.08 153.93 113.2 196.34 C113.21 201.34 113.22 206.34 113.24 211.34 C113.24 212.34 113.24 213.33 113.25 214.36 C113.29 230.5 113.33 246.64 113.37 262.79 C113.41 279.34 113.45 295.89 113.5 312.44 C113.53 322.66 113.56 332.88 113.58 343.11 C113.6 350.11 113.62 357.1 113.64 364.1 C113.65 368.15 113.66 372.19 113.67 376.24 C113.67 379.93 113.69 383.63 113.7 387.33 C113.71 389.31 113.71 391.29 113.71 393.28 C113.72 394.44 113.72 395.6 113.73 396.8 C113.73 398.32 113.73 398.32 113.73 399.86 C113.61 402.09 113.61 402.09 114.87 403.12 C115.08 405.94 115.24 408.74 115.37 411.56 C115.37 417.01 115.37 417.01 116.87 422.12 C117.14 424.68 117.31 427.24 117.49 429.81 C117.67 432.31 117.67 432.31 119.87 434.12 C120.66 437.12 121.27 440.14 121.89 443.18 C122.98 446.47 124.39 447.77 126.87 450.12 C126.87 451.11 126.87 452.1 126.87 453.12 C127.44 453.35 128.02 453.58 128.62 453.81 C130.87 455.12 130.87 455.12 132.62 457.44 C142.14 468.81 159.9 471.32 173.87 473.12 C175.53 473.13 177.2 473.13 178.87 473.12 C179.2 473.45 179.53 473.78 179.87 474.12 C182.08 474.28 184.31 474.37 186.53 474.44 C187.54 474.47 187.54 474.47 188.57 474.5 C190.73 474.57 192.89 474.63 195.05 474.69 C196.49 474.73 197.93 474.77 199.37 474.82 C206.78 475.06 206.78 475.06 214.2 475.07 C216.87 475.12 216.87 475.12 218.87 476.12 C220.95 476.24 223.04 476.29 225.13 476.31 C226.45 476.33 227.77 476.35 229.13 476.36 C230.19 476.37 230.19 476.37 231.27 476.38 C233.47 476.4 235.68 476.43 237.89 476.46 C243.36 476.53 248.84 476.59 254.32 476.65 C258.95 476.7 263.58 476.75 268.2 476.81 C270.38 476.84 272.56 476.86 274.74 476.88 C276.06 476.9 277.37 476.92 278.72 476.93 C279.89 476.95 281.05 476.96 282.25 476.97 C284.87 477.12 284.87 477.12 285.87 478.12 C285.96 479.95 285.99 481.79 285.99 483.62 C285.99 484.62 286 485.62 286 486.65 C285.87 489.12 285.87 489.12 284.87 490.12 C284.66 491.95 284.5 493.79 284.37 495.62 C283.98 501.01 283.98 501.01 282.87 502.12 C282.7 503.6 282.59 505.08 282.49 506.56 C281.32 519.67 281.32 519.67 277.87 523.12 C277.66 524.95 277.5 526.79 277.37 528.62 C276.98 534.01 276.98 534.01 275.87 535.12 C275.58 537.67 275.42 540.22 275.24 542.78 C274.87 545.12 274.87 545.12 272.87 547.12 C270.31 547.31 267.86 547.38 265.3 547.35 C264.56 547.35 263.81 547.35 263.04 547.35 C261.46 547.35 259.88 547.34 258.3 547.33 C255.87 547.31 253.45 547.31 251.03 547.31 C249.5 547.3 247.96 547.3 246.43 547.29 C245.7 547.29 244.97 547.29 244.22 547.29 C239.1 547.24 239.1 547.24 236.87 546.12 C234.85 546.03 232.82 545.99 230.8 546 C229.18 545.99 229.18 545.99 227.52 545.99 C224.94 545.82 224.94 545.82 223.87 547.12 C221.36 547.22 218.87 547.26 216.37 547.26 C215.61 547.26 214.86 547.26 214.09 547.26 C212.5 547.26 210.91 547.26 209.32 547.25 C206.88 547.25 204.43 547.25 201.99 547.26 C200.45 547.26 198.91 547.26 197.37 547.26 C196.63 547.26 195.89 547.26 195.14 547.26 C189.98 547.24 189.98 547.24 188.87 546.12 C187.26 546.01 185.65 545.96 184.04 545.93 C182.5 545.91 182.5 545.91 180.93 545.88 C179.81 545.87 178.69 545.86 177.53 545.84 C176.39 545.82 175.25 545.8 174.07 545.79 C170.4 545.73 166.72 545.67 163.05 545.62 C158.23 545.56 153.41 545.48 148.6 545.4 C147.48 545.39 146.37 545.38 145.22 545.36 C143.66 545.34 143.66 545.34 142.08 545.31 C141.16 545.3 140.25 545.29 139.31 545.27 C137.02 545.13 135.07 544.73 132.87 544.12 C130.85 543.92 128.84 543.76 126.82 543.62 C125.67 543.54 124.51 543.46 123.32 543.37 C120.88 543.21 118.44 543.04 116 542.87 C114.85 542.79 113.7 542.71 112.51 542.62 C111.45 542.55 110.39 542.48 109.3 542.4 C106.87 542.12 106.87 542.12 105.87 541.12 C103.34 540.89 100.83 540.7 98.3 540.56 C97.59 540.52 96.88 540.47 96.15 540.43 C94.39 540.32 92.63 540.22 90.87 540.12 C90.87 539.46 90.87 538.8 90.87 538.12 C90.25 538.15 89.64 538.17 89 538.19 C87.79 538.22 87.79 538.22 86.55 538.25 C85.75 538.27 84.95 538.29 84.13 538.32 C81.87 538.12 81.87 538.12 78.87 536.12 C76.48 535.52 74.09 534.98 71.68 534.5 C69.77 534.11 69.77 534.11 67.82 533.71 C66.85 533.52 65.87 533.32 64.87 533.12 C64.87 532.46 64.87 531.8 64.87 531.12 C63.47 531.18 63.47 531.18 62.05 531.25 C58.87 531.12 58.87 531.12 55.87 529.12 C54.54 528.67 53.21 528.26 51.87 527.87 C38.14 523.43 22.78 513.17 15.49 500.44 C14.69 498.8 14.69 498.8 13.87 497.12 C13.21 495.99 12.55 494.85 11.87 493.69 C6.78 484.75 2.9 476.42 1.87 466.12 C1.54 464.79 1.21 463.45 0.87 462.12 C-0.77 454.15 -1.82 446.15 -2.7 438.06 C-2.89 436.46 -2.89 436.46 -3.08 434.82 C-5.76 410.23 -5.3 385.33 -5.34 360.63 C-5.34 355.79 -5.36 350.94 -5.37 346.1 C-5.39 337.75 -5.41 329.39 -5.43 321.04 C-5.45 308.96 -5.48 296.88 -5.51 284.79 C-5.55 265.19 -5.6 245.58 -5.64 225.97 C-5.68 206.94 -5.72 187.91 -5.76 168.88 C-5.77 167.71 -5.77 166.53 -5.77 165.32 C-5.78 159.42 -5.8 153.52 -5.81 147.62 C-5.93 98.79 -6.03 49.95 -6.13 1.12 C-3.84 -0.03 -2.56 -0 0 0 Z " fill="#00DFD1" transform="translate(332.13482093811035,590.8769521713257)"/>
<path d="M0 0 C16.5 0 33 0 50 0 C51.68 1.68 51.12 3.74 51.13 5.98 C51.13 6.7 51.13 7.42 51.12 8.16 C51.13 8.93 51.13 9.69 51.13 10.48 C51.13 13.08 51.13 15.67 51.12 18.27 C51.12 20.14 51.12 22.02 51.13 23.89 C51.13 29.09 51.13 34.29 51.12 39.49 C51.12 45.12 51.12 50.76 51.12 56.39 C51.12 66.29 51.12 76.18 51.12 86.08 C51.11 96.7 51.11 107.32 51.11 117.94 C51.11 118.61 51.11 119.28 51.11 119.97 C51.11 123.39 51.11 126.8 51.11 130.22 C51.12 154.96 51.11 179.71 51.11 204.45 C51.1 228.96 51.1 253.48 51.09 277.99 C51.09 278.75 51.09 279.51 51.09 280.3 C51.09 287.24 51.09 294.19 51.09 301.14 C51.09 318.41 51.09 335.68 51.09 352.95 C51.09 354.13 51.09 354.13 51.09 355.34 C51.09 393.62 51.08 431.91 51.08 470.19 C51.07 483.48 51.07 496.77 51.07 510.06 C51.07 510.88 51.07 511.71 51.07 512.56 C51.06 550.86 51.06 589.15 51.06 627.45 C51.05 629.94 51.05 632.42 51.05 634.91 C51.05 651.38 51.05 667.85 51.05 684.33 C51.05 717.1 51.05 749.88 51.04 782.66 C51.04 784.22 51.04 785.78 51.04 787.34 C51.04 865.49 51.02 943.64 51 1099 C34.5 1099 18 1099 1 1099 C0.67 736.33 0.34 373.66 0 0 Z " fill="#4909A2" transform="translate(943,154)"/>
<path d="M0 0 C16.83 0 33.66 0 51 0 C51 362.67 51 725.34 51 1099 C34.83 1099 18.66 1099 2 1099 C2 1093.35 1.99 1087.7 1.99 1081.87 C1.92 996.93 1.86 911.98 1.76 785.33 C1.76 783.77 1.75 782.21 1.75 780.65 C1.73 747.86 1.7 715.08 1.67 682.3 C1.66 665.84 1.64 649.37 1.63 632.9 C1.63 630.42 1.63 627.94 1.62 625.45 C1.59 587.19 1.56 548.93 1.53 510.66 C1.53 509.84 1.53 509.02 1.53 508.17 C1.52 494.9 1.51 481.63 1.5 468.36 C1.47 430.15 1.44 391.94 1.41 353.72 C1.41 352.94 1.41 352.15 1.41 351.34 C1.4 334.11 1.38 316.87 1.37 299.64 C1.36 292.7 1.35 285.77 1.35 278.83 C1.35 278.07 1.35 277.32 1.35 276.53 C1.32 252.05 1.31 227.57 1.29 203.09 C1.27 178.45 1.25 153.8 1.23 129.15 C1.23 125.75 1.22 122.35 1.22 118.95 C1.22 118.28 1.22 117.62 1.22 116.93 C1.21 105.7 1.2 94.47 1.19 83.24 C1.19 73.49 1.18 63.75 1.17 54 C1.16 48.44 1.16 42.87 1.16 37.3 C1.16 32.25 1.15 27.2 1.14 22.15 C1.14 20.32 1.14 18.49 1.14 16.67 C1.14 14.21 1.14 11.74 1.13 9.28 C1.13 8.56 1.13 7.85 1.14 7.11 C1.17 3.43 1.17 3.43 0 0 Z " fill="#4909A2" transform="translate(758,154)"/>
<path d="M0 0 C1.14 2.27 1.12 3.5 1.12 6.03 C1.13 6.87 1.13 7.72 1.13 8.59 C1.13 9.53 1.12 10.46 1.12 11.43 C1.12 12.42 1.12 13.41 1.12 14.43 C1.12 17.77 1.12 21.1 1.11 24.44 C1.11 26.83 1.11 29.21 1.11 31.6 C1.11 37.41 1.11 43.23 1.1 49.04 C1.1 55.81 1.09 62.58 1.09 69.34 C1.09 81.41 1.08 93.48 1.08 105.54 C1.07 117.27 1.06 128.99 1.05 140.72 C1.05 141.44 1.05 142.16 1.05 142.91 C1.05 146.53 1.05 150.15 1.05 153.78 C1.04 183.85 1.02 213.93 1 244 C11.47 244.13 21.93 244.26 32.4 244.39 C37.26 244.45 42.12 244.51 46.98 244.57 C73.33 244.91 99.67 245.22 126.01 244.91 C127.67 244.9 129.34 244.95 131 245 C132 246 132 246 132.12 248.74 C132.12 249.96 132.12 251.19 132.11 252.45 C132.11 253.12 132.11 253.79 132.11 254.49 C132.11 256.72 132.11 258.96 132.1 261.19 C132.1 262.74 132.09 264.28 132.09 265.83 C132.09 269.9 132.08 273.98 132.07 278.05 C132.06 282.21 132.05 286.37 132.05 290.52 C132.04 298.68 132.02 306.84 132 315 C100.42 315.02 68.85 315.04 37.27 315.05 C33.55 315.05 29.82 315.05 26.1 315.05 C25.36 315.06 24.62 315.06 23.85 315.06 C11.83 315.06 -0.19 315.07 -12.21 315.08 C-24.54 315.09 -36.86 315.09 -49.19 315.09 C-56.8 315.1 -64.41 315.1 -72.02 315.11 C-77.85 315.11 -83.67 315.11 -89.5 315.11 C-91.9 315.11 -94.29 315.12 -96.69 315.12 C-99.95 315.12 -103.21 315.12 -106.46 315.12 C-107.91 315.12 -107.91 315.12 -109.38 315.13 C-115.89 315.11 -115.89 315.11 -117 314 C-117.1 312.34 -117.14 310.67 -117.14 309.01 C-117.15 307.92 -117.15 306.83 -117.16 305.71 C-117.16 304.5 -117.16 303.29 -117.16 302.04 C-117.17 300.77 -117.18 299.49 -117.18 298.18 C-117.2 294.63 -117.21 291.07 -117.22 287.52 C-117.23 283.7 -117.24 279.87 -117.26 276.04 C-117.28 268.54 -117.31 261.04 -117.33 253.54 C-117.35 247.45 -117.37 241.36 -117.39 235.26 C-117.39 234.4 -117.39 233.53 -117.39 232.64 C-117.4 230.88 -117.41 229.12 -117.41 227.37 C-117.47 210.86 -117.52 194.36 -117.57 177.85 C-117.61 163.68 -117.65 149.5 -117.7 135.32 C-117.76 118.88 -117.82 102.43 -117.87 85.99 C-117.87 84.24 -117.88 82.49 -117.88 80.74 C-117.88 79.87 -117.89 79.01 -117.89 78.12 C-117.91 72.04 -117.93 65.95 -117.95 59.86 C-117.98 52.44 -118 45.02 -118.02 37.61 C-118.03 33.82 -118.04 30.03 -118.06 26.25 C-118.07 22.15 -118.08 18.05 -118.09 13.96 C-118.1 12.75 -118.1 11.54 -118.11 10.29 C-118.11 9.2 -118.11 8.11 -118.11 6.99 C-118.11 6.05 -118.12 5.1 -118.12 4.12 C-118 2 -118 2 -117 1 C-115.07 0.88 -113.14 0.82 -111.21 0.79 C-109.96 0.77 -108.7 0.75 -107.41 0.73 C-106.02 0.72 -104.63 0.7 -103.24 0.68 C-101.8 0.66 -100.36 0.64 -98.92 0.62 C-95.04 0.56 -91.16 0.52 -87.28 0.47 C-84.89 0.44 -82.49 0.41 -80.09 0.37 C-53.39 0.01 -26.7 -0.13 0 0 Z " fill="#00DFD1" transform="translate(444,222)"/>
<path d="M0 0 C0.37 2.26 0.37 2.26 0.37 5.13 C0.38 6.23 0.38 7.32 0.39 8.45 C0.38 9.66 0.37 10.87 0.36 12.12 C0.36 13.4 0.37 14.68 0.37 16 C0.38 19.57 0.36 23.13 0.35 26.69 C0.34 30.53 0.34 34.37 0.34 38.21 C0.34 44.87 0.33 51.52 0.32 58.18 C0.29 67.8 0.28 77.42 0.28 87.05 C0.27 102.66 0.25 118.27 0.23 133.88 C0.2 149.05 0.18 164.21 0.16 179.38 C0.16 180.33 0.16 181.27 0.16 182.24 C0.16 189.62 0.15 197.01 0.14 204.39 C0.12 240.59 0.06 276.8 0 313 C-79.86 313 -159.72 313 -242 313 C-244.07 308.87 -244.24 307.16 -244.23 302.67 C-244.23 301.39 -244.23 300.11 -244.23 298.79 C-244.22 297.4 -244.21 296 -244.2 294.61 C-244.19 293.18 -244.19 291.75 -244.19 290.32 C-244.18 286.57 -244.16 282.81 -244.14 279.06 C-244.12 275.22 -244.11 271.39 -244.1 267.55 C-244.08 260.04 -244.04 252.52 -244 245 C-243.34 244.67 -242.68 244.34 -242 244 C-242 243.67 -242 243.34 -242 243 C-201.41 243 -160.82 243 -119 243 C-119 162.48 -119 81.96 -119 -1 C-3.97 -2.64 -3.97 -2.64 0 0 Z " fill="#00DFD1" transform="translate(278,224)"/>
<path d="M0 0 C17.16 0 34.32 0 52 0 C52.01 5.73 52.02 11.47 52.02 17.37 C52.1 69.9 52.18 122.42 52.28 174.94 C52.29 181.81 52.31 188.69 52.32 195.57 C52.32 196.25 52.32 196.94 52.32 197.64 C52.36 219.84 52.39 242.04 52.42 264.24 C52.46 287.69 52.5 311.14 52.54 334.59 C52.57 348.65 52.59 362.71 52.61 376.76 C52.62 386.39 52.64 396.01 52.66 405.64 C52.67 411.2 52.68 416.76 52.68 422.32 C52.69 427.41 52.7 432.49 52.71 437.58 C52.72 439.42 52.72 441.27 52.72 443.11 C52.72 445.61 52.73 448.11 52.74 450.6 C52.73 451.33 52.73 452.06 52.73 452.81 C52.65 456.85 52.65 456.85 55 460 C55.28 462.55 55.47 465.01 55.56 467.56 C55.36 472.15 55.36 472.15 57 476 C57.16 477.45 57.28 478.91 57.38 480.38 C58.04 489.84 58.04 489.84 62 498 C62.12 499.05 62.25 500.1 62.38 501.19 C62.8 504.98 62.8 504.98 64.5 508 C66.19 511.37 66.63 514.27 67 518 C67.66 518 68.32 518 69 518 C69.19 518.55 69.39 519.11 69.59 519.68 C69.85 520.4 70.11 521.13 70.38 521.88 C70.63 522.59 70.89 523.31 71.15 524.05 C71.94 526.18 71.94 526.18 74 528 C74 529.32 74 530.64 74 532 C74.66 532 75.32 532 76 532 C76.68 533.42 76.68 533.42 77.38 534.88 C78.8 538 78.8 538 81 540 C81 541.32 81 542.64 81 544 C81.54 544.21 82.08 544.42 82.63 544.64 C85.9 546.52 88.33 549.12 90.94 551.81 C91.45 552.33 91.96 552.86 92.49 553.39 C93.51 554.43 94.52 555.46 95.53 556.5 C96.94 557.94 98.36 559.36 99.79 560.79 C101.04 562.04 102.29 563.32 103.5 564.62 C106.24 567.14 109.57 568.76 112.81 570.56 C113.9 571.27 113.9 571.27 115 572 C115 572.66 115 573.32 115 574 C115.68 574.08 116.36 574.16 117.06 574.25 C120.24 575.06 122.5 576.34 125.29 578.01 C127.44 579.25 129.67 580.15 132 581 C132 581.66 132 582.32 132 583 C132.89 583.26 132.89 583.26 133.8 583.52 C138.38 584.85 142.9 586.29 147.38 587.94 C166.17 594.84 186.12 600.36 206.18 601.79 C208 602 208 602 210 603 C212.29 603.34 214.6 603.63 216.9 603.9 C217.6 603.98 218.31 604.07 219.03 604.15 C221.33 604.42 223.63 604.68 225.94 604.94 C227.11 605.07 227.11 605.07 228.31 605.21 C240.1 606.55 251.89 607.64 263.73 608.4 C265.27 608.5 265.27 608.5 266.84 608.61 C267.72 608.66 268.6 608.71 269.51 608.77 C272 609 272 609 274.33 609.5 C277.85 610.16 281.35 610.23 284.93 610.32 C285.67 610.34 286.42 610.36 287.19 610.38 C289.56 610.44 291.94 610.5 294.31 610.56 C295.93 610.61 297.54 610.65 299.16 610.69 C303.11 610.8 307.05 610.9 311 611 C311 611.66 311 612.32 311 613 C312.59 612.75 312.59 612.75 314.22 612.5 C319.97 611.78 325.7 611.94 331.49 612.05 C332.67 612.07 333.85 612.09 335.06 612.11 C337.55 612.15 340.03 612.19 342.51 612.24 C346.32 612.31 350.12 612.37 353.93 612.42 C356.35 612.46 358.76 612.51 361.18 612.55 C362.89 612.57 362.89 612.57 364.63 612.6 C366.21 612.63 366.21 612.63 367.83 612.67 C369.22 612.69 369.22 612.69 370.64 612.71 C373 613 373 613 376 615 C375.69 617.48 375.38 619.96 375.06 622.44 C374.98 623.14 374.89 623.85 374.8 624.58 C374.11 629.89 374.11 629.89 373 631 C372.72 633.25 372.55 635.51 372.38 637.77 C372 640 372 640 370 643 C369.58 645.02 369.58 645.02 369.44 647.12 C369 651 369 651 368 652 C367.79 653.83 367.63 655.66 367.5 657.5 C367.11 662.89 367.11 662.89 366 664 C365.77 665.35 365.59 666.7 365.44 668.06 C365.29 669.36 365.15 670.66 365 672 C364.34 672 363.68 672 363 672 C362.67 674.97 362.34 677.94 362 681 C357.5 681.02 353 681.04 348.49 681.05 C346.96 681.06 345.43 681.07 343.9 681.08 C341.7 681.09 339.49 681.09 337.29 681.1 C336.61 681.1 335.92 681.11 335.22 681.11 C332.19 681.11 329.9 680.97 327 680 C324.77 679.93 322.54 679.92 320.31 679.94 C318.54 679.95 318.54 679.95 316.74 679.96 C315.83 679.98 314.93 679.99 314 680 C312.28 673.89 313.9 668.52 315.27 662.5 C315.52 661.4 315.76 660.29 316.01 659.15 C316.79 655.62 317.58 652.09 318.38 648.56 C319.16 645.04 319.94 641.51 320.72 637.99 C321.2 635.79 321.69 633.6 322.18 631.41 C323.91 623.76 323.91 623.76 325 616 C323.81 614.58 323.81 614.58 320.38 614.93 C318.73 614.94 317.09 614.96 315.45 614.98 C303.56 615.06 291.7 614.7 279.81 614.25 C278.7 614.21 277.59 614.17 276.44 614.12 C252.73 613.21 229.13 611.41 205.5 609.23 C203.23 609.02 200.95 608.82 198.67 608.62 C141.72 603.64 74.39 594.26 35 548 C7.57 512.9 1.85 467.62 1.85 424.47 C1.84 422.64 1.84 420.81 1.84 418.98 C1.82 413.99 1.82 409 1.81 404 C1.81 398.61 1.8 393.21 1.79 387.82 C1.77 378.48 1.75 369.14 1.74 359.8 C1.72 346.3 1.7 332.8 1.67 319.3 C1.63 297.39 1.59 275.47 1.55 253.56 C1.55 252.25 1.55 250.94 1.55 249.59 C1.53 238.96 1.51 228.32 1.49 217.69 C1.48 208.37 1.46 199.06 1.45 189.74 C1.45 188.43 1.44 187.12 1.44 185.77 C1.41 163.92 1.37 142.07 1.32 120.22 C1.3 106.74 1.27 93.27 1.26 79.79 C1.24 70.57 1.23 61.35 1.21 52.13 C1.2 46.81 1.19 41.48 1.18 36.16 C1.18 31.29 1.17 26.43 1.16 21.56 C1.15 19.79 1.15 18.02 1.15 16.26 C1.15 13.87 1.14 11.48 1.14 9.09 C1.14 8.39 1.14 7.7 1.14 6.98 C1.16 3.37 1.16 3.37 0 0 Z M315 678 C315 678.33 315 678.66 315 679 C318.96 679 322.92 679 327 679 C327 678.67 327 678.34 327 678 C323.04 678 319.08 678 315 678 Z " fill="#4909A2" transform="translate(214,591)"/>
<path d="M0 0 C1.24 0 1.24 0 2.51 0 C3.45 0 4.38 -0 5.35 -0.01 C6.36 0 7.38 0.01 8.42 0.02 C9.98 0.02 9.98 0.02 11.57 0.02 C13.77 0.02 15.96 0.03 18.16 0.04 C21.53 0.06 24.91 0.06 28.28 0.06 C30.41 0.07 32.54 0.07 34.67 0.08 C35.69 0.08 36.71 0.08 37.75 0.08 C38.69 0.09 39.62 0.1 40.59 0.1 C41.41 0.11 42.24 0.11 43.09 0.11 C44.98 0.25 44.98 0.25 45.98 1.25 C46.08 3.02 46.11 4.79 46.12 6.57 C46.12 7.73 46.13 8.89 46.13 10.09 C46.13 11.38 46.13 12.67 46.13 14 C46.14 15.38 46.14 16.75 46.15 18.12 C46.16 21.92 46.16 25.71 46.17 29.5 C46.17 33.58 46.19 37.67 46.2 41.75 C46.21 48.83 46.23 55.91 46.24 62.99 C46.26 73.23 46.29 83.47 46.31 93.71 C46.35 110.32 46.39 126.93 46.43 143.54 C46.43 144.54 46.43 145.53 46.44 146.56 C46.45 154.63 46.47 162.71 46.49 170.78 C46.5 177.84 46.52 184.9 46.53 191.95 C46.54 192.95 46.54 193.94 46.54 194.97 C46.58 211.51 46.62 228.06 46.66 244.61 C46.69 254.82 46.71 265.04 46.73 275.26 C46.74 282.26 46.76 289.25 46.77 296.25 C46.78 300.29 46.79 304.33 46.8 308.38 C46.8 312.07 46.81 315.76 46.82 319.46 C46.83 321.44 46.83 323.42 46.83 325.41 C46.84 326.57 46.84 327.73 46.85 328.93 C46.85 329.94 46.85 330.95 46.85 331.99 C46.73 334.22 46.73 334.22 47.98 335.25 C48.19 338.06 48.36 340.86 48.48 343.68 C48.49 349.13 48.49 349.13 49.98 354.25 C50.25 356.81 50.43 359.37 50.6 361.93 C50.78 364.44 50.78 364.44 52.98 366.25 C53.78 369.25 54.39 372.26 55.01 375.3 C56.1 378.6 57.51 379.89 59.98 382.25 C59.98 383.24 59.98 384.23 59.98 385.25 C60.85 385.59 60.85 385.59 61.73 385.93 C63.98 387.25 63.98 387.25 65.73 389.56 C75.25 400.93 93.02 403.44 106.98 405.25 C108.65 405.25 110.32 405.26 111.98 405.25 C112.31 405.58 112.64 405.91 112.98 406.25 C115.2 406.41 117.43 406.5 119.65 406.56 C120.66 406.59 120.66 406.59 121.69 406.63 C123.85 406.69 126.01 406.75 128.17 406.81 C129.61 406.85 131.05 406.9 132.48 406.94 C138.32 407.11 144.14 407.27 149.98 407.25 C150.31 408.24 150.64 409.23 150.98 410.25 C124.35 410.45 97.75 410.17 71.18 408.11 C69.66 408 68.15 407.88 66.63 407.77 C53.29 406.8 39.57 404.91 27.61 398.56 C26.95 398.22 26.29 397.88 25.62 397.53 C14.44 391.51 6.91 383.23 2.92 371.18 C2.66 370.41 2.41 369.63 2.14 368.84 C-3.63 350.39 -4.18 330.38 -4.15 311.19 C-4.15 309.85 -4.16 308.51 -4.16 307.16 C-4.16 303.52 -4.16 299.87 -4.16 296.23 C-4.16 292.28 -4.17 288.33 -4.17 284.38 C-4.18 276.67 -4.18 268.96 -4.19 261.24 C-4.19 254.98 -4.19 248.71 -4.19 242.45 C-4.2 224.67 -4.2 206.9 -4.2 189.12 C-4.2 188.17 -4.2 187.21 -4.2 186.23 C-4.2 185.27 -4.2 184.31 -4.2 183.33 C-4.2 167.77 -4.21 152.22 -4.23 136.67 C-4.24 120.69 -4.25 104.7 -4.25 88.72 C-4.25 79.75 -4.25 70.79 -4.26 61.82 C-4.27 54.2 -4.27 46.57 -4.26 38.95 C-4.26 35.06 -4.26 31.17 -4.27 27.28 C-4.28 23.07 -4.27 18.86 -4.27 14.65 C-4.27 13.41 -4.28 12.17 -4.28 10.89 C-4.27 9.21 -4.27 9.21 -4.27 7.5 C-4.27 6.52 -4.27 5.55 -4.27 4.55 C-3.94 1.51 -3.1 0.38 0 0 Z " fill="#4909A2" transform="translate(399.01808166503906,658.7527618408203)"/>
<path d="M0 0 C1.37 -0.01 1.37 -0.01 2.76 -0.02 C3.74 -0.02 4.72 -0.02 5.73 -0.02 C6.74 -0.03 7.75 -0.03 8.79 -0.03 C10.93 -0.04 13.06 -0.04 15.2 -0.04 C18.47 -0.04 21.74 -0.06 25.02 -0.08 C27.09 -0.08 29.16 -0.08 31.23 -0.09 C32.22 -0.09 33.2 -0.1 34.21 -0.11 C35.12 -0.1 36.03 -0.1 36.97 -0.1 C38.17 -0.1 38.17 -0.1 39.4 -0.1 C41.48 0.15 41.48 0.15 44.48 2.15 C44.86 4.4 44.86 4.4 44.85 7.28 C44.86 8.37 44.87 9.47 44.87 10.6 C44.86 12.41 44.86 12.41 44.85 14.27 C44.85 15.55 44.85 16.83 44.85 18.15 C44.86 21.71 44.85 25.28 44.83 28.84 C44.82 32.68 44.82 36.52 44.83 40.36 C44.83 47.01 44.82 53.67 44.8 60.32 C44.78 69.95 44.77 79.57 44.77 89.19 C44.76 104.8 44.74 120.41 44.71 136.02 C44.68 151.19 44.66 166.36 44.65 181.53 C44.65 182.46 44.65 183.4 44.65 184.36 C44.64 189.05 44.64 193.73 44.64 198.42 C44.6 237.33 44.55 276.24 44.48 315.15 C37.54 315.2 30.6 315.23 23.66 315.26 C21.3 315.27 18.93 315.28 16.57 315.3 C13.18 315.32 9.79 315.33 6.4 315.34 C5.34 315.35 4.28 315.36 3.18 315.37 C2.2 315.37 1.22 315.37 0.21 315.37 C-0.66 315.38 -1.52 315.38 -2.41 315.39 C-4.52 315.15 -4.52 315.15 -6.52 313.15 C-6.77 310.9 -6.77 310.9 -6.78 308.03 C-6.78 306.94 -6.79 305.84 -6.8 304.72 C-6.8 303.51 -6.8 302.3 -6.79 301.06 C-6.8 299.78 -6.81 298.51 -6.81 297.19 C-6.83 293.64 -6.83 290.09 -6.83 286.54 C-6.84 282.71 -6.85 278.88 -6.86 275.06 C-6.89 268.42 -6.9 261.79 -6.91 255.15 C-6.93 245.56 -6.95 235.97 -6.98 226.38 C-7.03 210.82 -7.06 195.25 -7.09 179.69 C-7.12 164.57 -7.16 149.46 -7.2 134.34 C-7.2 133.4 -7.2 132.47 -7.21 131.51 C-7.22 126.84 -7.23 122.17 -7.24 117.5 C-7.35 78.71 -7.44 39.93 -7.52 1.15 C-4.69 0.2 -2.93 0.01 0 0 Z " fill="#4A0AA3" transform="translate(233.515625,221.854736328125)"/>
<path d="M0 0 C1.41 0 1.41 0 2.85 0 C3.86 0.01 4.87 0.01 5.9 0.02 C6.94 0.02 7.98 0.02 9.05 0.02 C12.36 0.03 15.67 0.04 18.98 0.05 C21.23 0.06 23.47 0.06 25.72 0.06 C31.22 0.08 36.73 0.09 42.23 0.11 C43.37 2.39 43.36 3.62 43.35 6.14 C43.36 6.99 43.36 7.83 43.36 8.71 C43.36 10.11 43.36 10.11 43.35 11.54 C43.35 12.53 43.35 13.52 43.35 14.54 C43.36 17.88 43.35 21.22 43.34 24.56 C43.34 26.94 43.34 29.32 43.35 31.71 C43.35 37.53 43.34 43.34 43.33 49.16 C43.33 55.92 43.33 62.69 43.33 69.46 C43.32 81.52 43.32 93.59 43.31 105.66 C43.3 117.38 43.29 129.11 43.29 140.83 C43.29 141.55 43.29 142.27 43.29 143.02 C43.28 146.64 43.28 150.27 43.28 153.89 C43.27 183.96 43.25 214.04 43.23 244.11 C43.89 244.44 44.55 244.77 45.23 245.11 C42.05 247.24 41.25 247.37 37.61 247.37 C36.67 247.38 35.74 247.38 34.78 247.39 C33.77 247.39 32.76 247.38 31.73 247.38 C30.69 247.38 29.66 247.38 28.59 247.38 C26.41 247.39 24.22 247.38 22.03 247.37 C18.68 247.36 15.32 247.37 11.97 247.39 C9.85 247.39 7.72 247.38 5.6 247.38 C4.59 247.38 3.59 247.39 2.55 247.39 C1.15 247.38 1.15 247.38 -0.27 247.37 C-1.1 247.37 -1.92 247.37 -2.76 247.37 C-4.77 247.11 -4.77 247.11 -6.77 245.11 C-7.02 243.31 -7.02 243.31 -7.01 241.07 C-7.02 240.22 -7.02 239.37 -7.03 238.5 C-7.02 237.56 -7.02 236.62 -7.01 235.65 C-7.01 234.65 -7.01 233.66 -7.01 232.64 C-7.02 229.28 -7.01 225.93 -7 222.58 C-7 220.19 -7 217.79 -7 215.4 C-7 210.23 -6.99 205.07 -6.98 199.9 C-6.96 192.43 -6.96 184.96 -6.96 177.49 C-6.95 165.38 -6.94 153.26 -6.92 141.14 C-6.9 129.37 -6.89 117.6 -6.88 105.82 C-6.88 105.1 -6.88 104.37 -6.88 103.63 C-6.87 99.99 -6.87 96.35 -6.87 92.71 C-6.85 62.51 -6.81 32.31 -6.77 2.11 C-7.43 1.78 -8.09 1.45 -8.77 1.11 C-5.77 0.25 -3.11 -0.01 0 0 Z " fill="#4909A2" transform="translate(401.7685546875,221.886474609375)"/>
<path d="M0 0 C6.96 -0.03 13.92 -0.04 20.88 -0.05 C23.25 -0.06 25.62 -0.07 27.99 -0.08 C31.39 -0.09 34.79 -0.09 38.18 -0.1 C39.25 -0.1 40.32 -0.11 41.42 -0.11 C42.89 -0.11 42.89 -0.11 44.39 -0.11 C45.26 -0.12 46.12 -0.12 47.02 -0.12 C49 0 49 0 50 1 C50.1 2.83 50.13 4.67 50.12 6.5 C50.13 8 50.13 8 50.13 9.53 C50 12 50 12 49 13 C48.79 14.83 48.63 16.66 48.5 18.5 C48.11 23.89 48.11 23.89 47 25 C46.84 26.48 46.72 27.96 46.62 29.44 C45.45 42.55 45.45 42.55 42 46 C41.79 47.83 41.63 49.66 41.5 51.5 C41.11 56.89 41.11 56.89 40 58 C39.72 60.55 39.55 63.1 39.38 65.65 C39 68 39 68 37 70 C34.44 70.19 31.99 70.26 29.44 70.23 C28.69 70.23 27.94 70.23 27.17 70.23 C25.59 70.23 24.01 70.22 22.43 70.21 C20.01 70.19 17.59 70.19 15.16 70.19 C13.63 70.18 12.1 70.17 10.56 70.17 C9.84 70.17 9.11 70.17 8.36 70.16 C3.23 70.12 3.23 70.12 1 69 C-1.04 68.93 -3.08 68.92 -5.12 68.94 C-6.22 68.95 -7.32 68.96 -8.45 68.96 C-9.71 68.98 -9.71 68.98 -11 69 C-12.19 65.49 -11.8 63.03 -11.01 59.44 C-10.77 58.33 -10.53 57.21 -10.28 56.06 C-10.02 54.86 -9.75 53.66 -9.47 52.42 C-9.2 51.18 -8.94 49.94 -8.66 48.66 C-7.8 44.69 -6.93 40.72 -6.06 36.75 C-4.92 31.54 -3.79 26.32 -2.66 21.11 C-2.39 19.92 -2.13 18.72 -1.86 17.49 C-0.57 11.53 0.32 6.11 0 0 Z " fill="#4909A2" transform="translate(568,1068)"/>
<path d="M0 0 C6.96 -0.03 13.92 -0.04 20.88 -0.05 C23.25 -0.06 25.62 -0.07 27.99 -0.08 C31.39 -0.09 34.79 -0.09 38.18 -0.1 C39.25 -0.1 40.32 -0.11 41.42 -0.11 C42.89 -0.11 42.89 -0.11 44.39 -0.11 C45.26 -0.12 46.12 -0.12 47.02 -0.12 C49 0 49 0 50 1 C50.09 3.15 50.12 5.3 50.11 7.45 C50.11 8.12 50.11 8.79 50.11 9.49 C50.11 11.72 50.11 13.96 50.1 16.19 C50.1 17.74 50.09 19.28 50.09 20.83 C50.09 24.9 50.08 28.98 50.07 33.05 C50.06 37.21 50.05 41.37 50.05 45.52 C50.04 53.68 50.02 61.84 50 70 C43.18 70.03 36.36 70.04 29.55 70.05 C27.23 70.06 24.9 70.07 22.58 70.08 C19.25 70.09 15.93 70.09 12.6 70.1 C11.03 70.11 11.03 70.11 9.43 70.11 C8.47 70.11 7.51 70.11 6.52 70.11 C5.67 70.12 4.82 70.12 3.94 70.12 C2 70 2 70 1 69 C0.88 66.85 0.82 64.7 0.79 62.55 C0.78 61.88 0.77 61.21 0.76 60.51 C0.73 58.28 0.71 56.04 0.68 53.81 C0.66 52.26 0.64 50.72 0.62 49.17 C0.57 45.1 0.52 41.02 0.47 36.95 C0.42 32.79 0.36 28.63 0.31 24.48 C0.2 16.32 0.1 8.16 0 0 Z " fill="#4A0AA3" transform="translate(526,467)"/>
<path d="M0 0 C16.83 0 33.66 0 51 0 C50.67 22.44 50.34 44.88 50 68 C33.83 68 17.66 68 1 68 C0.67 45.56 0.34 23.12 0 0 Z " fill="#4909A2" transform="translate(526,591)"/>
<path d="M0 0 C0.33 0 0.66 0 1 0 C1 362.01 1 724.02 1 1097 C0.67 1097 0.34 1097 0 1097 C0 734.99 0 372.98 0 0 Z " fill="#000002" transform="translate(995,156)"/>
<path d="M0 0 C0.33 0 0.66 0 1 0 C1 362.01 1 724.02 1 1097 C0.67 1097 0.34 1097 0 1097 C0 734.99 0 372.98 0 0 Z " fill="#000002" transform="translate(810,156)"/>
<path d="M0 0 C0.33 0 0.66 0 1 0 C1 150.48 1 300.96 1 456 C0.67 456 0.34 456 0 456 C0 305.52 0 155.04 0 0 Z " fill="#000002" transform="translate(267,593)"/>
<path d="M0 0 C0.33 0 0.66 0 1 0 C1 121.77 1 243.54 1 369 C0.67 369 0.34 369 0 369 C0 247.23 0 125.46 0 0 Z " fill="#00E0D2" transform="translate(325,599)"/>
<path d="M0 0 C0.33 0 0.66 0 1 0 C1 99.99 1 199.98 1 303 C0.67 303 0.34 303 0 303 C0 203.01 0 103.02 0 0 Z " fill="#00E0D2" transform="translate(325,229)"/>
<path d="M0 0 C42.57 0 85.14 0 129 0 C129 0.33 129 0.66 129 1 C86.43 1 43.86 1 0 1 C0 0.67 0 0.34 0 0 Z " fill="#000002" transform="translate(447,660)"/>
<path d="M0 0 C1.21 0 2.41 0.01 3.65 0.01 C4.91 0.02 6.16 0.03 7.45 0.04 C9.36 0.04 9.36 0.04 11.3 0.05 C14.43 0.06 17.57 0.08 20.7 0.1 C20.7 0.76 20.7 1.42 20.7 2.1 C22.44 1.82 22.44 1.82 24.2 1.54 C28.57 0.97 32.37 1.4 36.7 2.1 C36.7 2.43 36.7 2.76 36.7 3.1 C21.63 5.56 5.88 3.84 -9.3 3.1 C-9.63 2.44 -9.96 1.78 -10.3 1.1 C-6.82 0.03 -3.63 -0.02 0 0 Z " fill="#440A97" transform="translate(504.296875,1201.90234375)"/>
<path d="M0 0 C38.61 0 77.22 0 117 0 C117 0.33 117 0.66 117 1 C78.39 1 39.78 1 0 1 C0 0.67 0 0.34 0 0 Z " fill="#000002" transform="translate(693,1254)"/>
<path d="M0 0 C38.28 0 76.56 0 116 0 C116 0.33 116 0.66 116 1 C77.72 1 39.44 1 0 1 C0 0.67 0 0.34 0 0 Z " fill="#000002" transform="translate(878,1254)"/>
<path d="M0 0 C12.21 0 24.42 0 37 0 C37.5 1.48 37.5 1.48 38 3 C28.43 3 18.86 3 9 3 C9 2.34 9 1.68 9 1 C6.03 1 3.06 1 0 1 C0 0.67 0 0.34 0 0 Z " fill="#32167B" transform="translate(512,1066)"/>
<path d="M0 0 C0.33 0 0.66 0 1 0 C1 22.44 1 44.88 1 68 C0.67 68 0.34 68 0 68 C0 45.56 0 23.12 0 0 Z " fill="#000002" transform="translate(577,592)"/>
<path d="M0 0 C0.33 0 0.66 0 1 0 C1 22.44 1 44.88 1 68 C0.67 68 0.34 68 0 68 C0 45.56 0 23.12 0 0 Z " fill="#000002" transform="translate(577,469)"/>
<path d="M0 0 C5.61 0 11.22 0 17 0 C17 0.33 17 0.66 17 1 C11.39 1 5.78 1 0 1 C0 0.67 0 0.34 0 0 Z " fill="#000002" transform="translate(416,1268)"/>
<path d="M0 0 C0.33 0 0.66 0 1 0 C1 5.28 1 10.56 1 16 C0.67 16 0.34 16 0 16 C0 10.72 0 5.44 0 0 Z " fill="#000002" transform="translate(446,977)"/>
<path d="M0 0 C0.33 0 0.66 0 1 0 C1 2.64 1 5.28 1 8 C0.67 8 0.34 8 0 8 C0 5.36 0 2.72 0 0 Z " fill="#000002" transform="translate(619,1069)"/>
<path d="M0 0 C0.33 0 0.66 0 1 0 C1 2.31 1 4.62 1 7 C0.67 7 0.34 7 0 7 C0 4.69 0 2.38 0 0 Z " fill="#000002" transform="translate(610,1114)"/>
<path d="M0 0 C0.33 0 0.66 0 1 0 C1 2.31 1 4.62 1 7 C0.67 7 0.34 7 0 7 C0 4.69 0 2.38 0 0 Z " fill="#000002" transform="translate(448,1004)"/>
<path d="M0 0 C0.33 0 0.66 0 1 0 C1 2.31 1 4.62 1 7 C0.67 7 0.34 7 0 7 C0 4.69 0 2.38 0 0 Z " fill="#00E0D2" transform="translate(326,977)"/>
<path d="M0 0 C1.98 0 3.96 0 6 0 C6 0.33 6 0.66 6 1 C4.02 1 2.04 1 0 1 C0 0.67 0 0.34 0 0 Z " fill="#000002" transform="translate(356,1261)"/>
<path d="M0 0 C0.33 0 0.66 0 1 0 C1 1.98 1 3.96 1 6 C0.67 6 0.34 6 0 6 C0 4.02 0 2.04 0 0 Z " fill="#000002" transform="translate(589,1210)"/>
<path d="M0 0 C1.98 0 3.96 0 6 0 C6 0.33 6 0.66 6 1 C4.02 1 2.04 1 0 1 C0 0.67 0 0.34 0 0 Z " fill="#000002" transform="translate(432,1132)"/>
<path d="M0 0 C0.33 0 0.66 0 1 0 C1 1.98 1 3.96 1 6 C0.67 6 0.34 6 0 6 C0 4.02 0 2.04 0 0 Z " fill="#000002" transform="translate(617,1081)"/>
<path d="M0 0 C0.33 0 0.66 0 1 0 C1 1.65 1 3.3 1 5 C0.67 5 0.34 5 0 5 C0 3.35 0 1.7 0 0 Z " fill="#000002" transform="translate(577,1265)"/>
<path d="M0 0 C0.33 0 0.66 0 1 0 C1 1.65 1 3.3 1 5 C0.67 5 0.34 5 0 5 C0 3.35 0 1.7 0 0 Z " fill="#000002" transform="translate(582,1243)"/>
<path d="M0 0 C0.33 0 0.66 0 1 0 C1 1.65 1 3.3 1 5 C0.67 5 0.34 5 0 5 C0 3.35 0 1.7 0 0 Z " fill="#000002" transform="translate(584,1234)"/>
<path d="M0 0 C1.65 0 3.3 0 5 0 C5 0.33 5 0.66 5 1 C3.35 1 1.7 1 0 1 C0 0.67 0 0.34 0 0 Z " fill="#000002" transform="translate(447,1134)"/>
<path d="M0 0 C0.33 0 0.66 0 1 0 C1 1.65 1 3.3 1 5 C0.67 5 0.34 5 0 5 C0 3.35 0 1.7 0 0 Z " fill="#000002" transform="translate(450,1018)"/>
<path d="M0 0 C4 1 4 1 4 1 Z " fill="#000002" transform="translate(399,1266)"/>
<path d="M0 0 C4 1 4 1 4 1 Z " fill="#000002" transform="translate(407,1127)"/>
<path d="M0 0 C1 4 1 4 1 4 Z " fill="#000002" transform="translate(274,1082)"/>
<path d="M0 0 C1 4 1 4 1 4 Z " fill="#000002" transform="translate(272,1073)"/>
<path d="M0 0 C1 4 1 4 1 4 Z " fill="#00E0D2" transform="translate(147,1038)"/>
<path d="M0 0 C3 1 3 1 3 1 Z " fill="#000002" transform="translate(319,1254)"/>
<path d="" fill="#000002" transform="translate(0,0)"/>
<path d="" fill="#000002" transform="translate(0,0)"/>
<path d="" fill="#000002" transform="translate(0,0)"/>
<path d="" fill="#02B5A8" transform="translate(0,0)"/>
<path d="M0 0 C2 1 2 1 2 1 Z " fill="#000002" transform="translate(347,1259)"/>
<path d="M0 0 C2 1 2 1 2 1 Z " fill="#000002" transform="translate(292,1247)"/>
<path d="" fill="#000002" transform="translate(0,0)"/>
<path d="" fill="#000002" transform="translate(0,0)"/>
<path d="" fill="#000002" transform="translate(0,0)"/>
<path d="" fill="#000002" transform="translate(0,0)"/>
<path d="" fill="#000002" transform="translate(0,0)"/>
<path d="" fill="#000002" transform="translate(0,0)"/>
<path d="" fill="#000002" transform="translate(0,0)"/>
<path d="" fill="#000002" transform="translate(0,0)"/>
<path d="" fill="#000002" transform="translate(0,0)"/>
<path d="" fill="#4A0AA3" transform="translate(0,0)"/>
<path d="" fill="#000002" transform="translate(0,0)"/>
<path d="" fill="#000002" transform="translate(0,0)"/>
<path d="" fill="#000002" transform="translate(0,0)"/>
<path d="" fill="#000002" transform="translate(0,0)"/>
<path d="" fill="#000002" transform="translate(0,0)"/>
<path d="" fill="#000002" transform="translate(0,0)"/>
<path d="" fill="#000002" transform="translate(0,0)"/>
<path d="" fill="#000002" transform="translate(0,0)"/>
<path d="" fill="#000002" transform="translate(0,0)"/>
<path d="" fill="#076155" transform="translate(0,0)"/>
<path d="" fill="#000002" transform="translate(0,0)"/>
<path d="" fill="#00E0D2" transform="translate(0,0)"/>
</svg>
