<svg width="671" height="340" viewBox="0 0 671 340" fill="none" xmlns="http://www.w3.org/2000/svg">
<path fill-rule="evenodd" clip-rule="evenodd" d="M10 25.5V51H49H88V153V255H202.456H316.911L317.206 195.75L317.5 136.5L319.818 130.761C324.588 118.949 335.344 112 348.856 112C363.245 112 372.306 117.641 377.116 129.593L379.494 135.5L379.798 195.25L380.102 255H410.596H441.09L440.766 186.25C440.449 119.032 440.393 117.326 438.249 109.7C432.965 90.902 420.854 75.795 405 68.224C400.325 65.992 393.8 63.59 390.5 62.886C382.13 61.102 364.979 61.346 356.613 63.369C341.683 66.98 327.729 77.671 320.545 91.004L317.045 97.5L317.023 48.75L317 0H286H255V102.5V205H246.5H238V173.5V142H207H176V173.5V205H163H150V128V51H188.5H227V25.5V0H118.5H10V25.5ZM552 62.118C512.443 66.643 483.029 93.409 473.744 133.328C470.859 145.729 470.638 173.302 473.323 185.873C482.857 230.521 513.504 255.951 561 258.627C600.677 260.862 633.283 246.696 649.354 220.24C653.549 213.334 658.774 198.338 657.419 197.093C656.913 196.629 644.257 195.948 629.293 195.58L602.086 194.911L600.102 198.8C597.642 203.623 592.149 208.533 586.103 211.315C582.242 213.092 579.562 213.439 569.484 213.467C557.902 213.499 557.227 213.382 550.819 210.229C539.632 204.726 533.151 194.837 532.221 181.852L531.732 175.015L595.116 174.758L658.5 174.5L658.353 158.5C658.185 140.242 656.226 128.628 651.064 115.291C636.348 77.271 598.257 56.825 552 62.118ZM196.698 70.444C183.219 75.252 175.258 87.667 176.219 102.379C176.779 110.958 179.341 116.462 185.607 122.552C191.958 128.724 199.351 131.32 209 130.764C217.979 130.246 223.31 127.815 229.552 121.393C235.724 115.042 238.32 107.649 237.764 98C237.246 89.021 234.815 83.69 228.393 77.448C220.598 69.872 206.831 66.83 196.698 70.444ZM582.176 108.722C592.114 113.185 600.317 124.32 601.166 134.5L601.5 138.5L566.75 138.763L532 139.026V136.024C532 134.372 532.867 130.74 533.926 127.952C537.491 118.57 543.419 112.706 553.73 108.362C558.708 106.265 560.736 105.979 568.5 106.277C574.902 106.523 578.85 107.229 582.176 108.722ZM0 315V340H335.5H671V315V290H335.5H0V315Z" fill="#40E5DA"/>
</svg>
